<svg width="64" height="64" viewBox="0 0 64 64" fill="none" xmlns="http://www.w3.org/2000/svg">
<g clip-path="url(#clip0_2_5)">
<path d="M-1.39877e-06 32C-1.12212e-06 38.329 1.87677 44.5159 5.39297 49.7782C8.90918 55.0406 13.9069 59.1421 19.7541 61.5641C25.6014 63.9861 32.0355 64.6198 38.2429 63.3851C44.4503 62.1504 50.1521 59.1027 54.6274 54.6274C59.1027 50.1521 62.1504 44.4503 63.3851 38.2429C64.6198 32.0355 63.9861 25.6013 61.5641 19.7541C59.1421 13.9069 55.0406 8.90916 49.7782 5.39296C44.5159 1.87675 38.329 -1.88416e-05 32 -1.85649e-05C23.5131 -1.81939e-05 15.3737 3.3714 9.37258 9.37257C3.37142 15.3737 -1.76974e-06 23.5131 -1.39877e-06 32ZM43.36 23.2933C43.9582 22.5062 44.8433 21.9875 45.8223 21.8501C46.8013 21.7128 47.7949 21.9679 48.5867 22.56C49.0392 22.9153 49.4052 23.3687 49.6569 23.8861C49.9087 24.4035 50.0397 24.9713 50.04 25.5466C50.0535 26.3502 49.8055 27.1363 49.3333 27.7866L34.96 46.6667C34.6129 47.1226 34.1652 47.4922 33.6518 47.7467C33.1383 48.0011 32.573 48.1335 32 48.1335C31.427 48.1335 30.8617 48.0011 30.3482 47.7467C29.8348 47.4922 29.3871 47.1226 29.04 46.6667L14.6667 27.7866C14.0708 26.9998 13.8119 26.0086 13.9469 25.0309C14.082 24.0532 14.5999 23.1692 15.3867 22.5733C16.1735 21.9775 17.1648 21.7186 18.1424 21.8536C19.1201 21.9886 20.0041 22.5065 20.6 23.2933L32 38.2667L43.36 23.2933Z" fill="white"/>
</g>
<defs>
<clipPath id="clip0_2_5">
<rect width="64" height="64" fill="white" transform="translate(0 64) rotate(-90)"/>
</clipPath>
</defs>
</svg>
