<svg width="64" height="64" viewBox="0 0 64 64" fill="none" xmlns="http://www.w3.org/2000/svg">
<path d="M32 6.64999C18 6.64999 6.65 18 6.65 32C6.65 46 18 57.35 32 57.35C46 57.35 57.35 46 57.35 32C57.35 18 46 6.64999 32 6.64999ZM32 54.95C19.35 54.95 9.05 44.65 9.05 32C9.05 19.35 19.35 9.04999 32 9.04999C44.65 9.04999 54.95 19.35 54.95 32C54.95 44.65 44.65 54.95 32 54.95Z" fill="white"/>
<path d="M44.05 30.8H22.85L30.45 23.2C30.9 22.75 30.9 21.95 30.45 21.5C30 21.05 29.2 21.05 28.75 21.5L19.05 31.15C18.95 31.25 18.85 31.4 18.8 31.55C18.7 31.85 18.7 32.2 18.8 32.45C18.85 32.6 18.95 32.75 19.05 32.85L28.75 42.5C29 42.75 29.3 42.85 29.6 42.85C29.9 42.85 30.2 42.75 30.45 42.5C30.9 42.05 30.9 41.25 30.45 40.8L22.85 33.2H44.1C44.75 33.2 45.3 32.65 45.3 32C45.3 31.35 44.75 30.8 44.05 30.8Z" fill="white"/>
</svg>
