<svg width="64" height="64" viewBox="0 0 64 64" fill="none" xmlns="http://www.w3.org/2000/svg">
<path d="M49.1429 4.57141C51.9762 4.57141 54.3988 5.57736 56.4107 7.58927C58.4226 9.60117 59.4286 12.0238 59.4286 14.8571V49.1428C59.4286 51.9762 58.4226 54.3988 56.4107 56.4107C54.3988 58.4226 51.9762 59.4286 49.1429 59.4286H42.4286V38.1786H49.5357L50.6071 29.8928H42.4286V24.6071C42.4286 23.2738 42.7083 22.2738 43.2679 21.6071C43.8274 20.9405 44.9167 20.6071 46.5357 20.6071L50.8929 20.5714V13.1786C49.3929 12.9643 47.2738 12.8571 44.5357 12.8571C41.2976 12.8571 38.7083 13.8095 36.7679 15.7143C34.8274 17.619 33.8571 20.3095 33.8571 23.7857V29.8928H26.7143V38.1786H33.8571V59.4286H14.8571C12.0238 59.4286 9.60119 58.4226 7.58928 56.4107C5.57738 54.3988 4.57143 51.9762 4.57143 49.1428V14.8571C4.57143 12.0238 5.57738 9.60117 7.58928 7.58927C9.60119 5.57736 12.0238 4.57141 14.8571 4.57141H49.1429Z" fill="white"/>
</svg>
