<svg width="64" height="64" viewBox="0 0 64 64" fill="none" xmlns="http://www.w3.org/2000/svg">
<path d="M54.1333 33.8667C53.3333 32.8 53.3333 31.4667 54.1333 30.4L57.6 26.6667C58.4 25.8667 58.4 24.5333 57.8667 23.4667L52.5333 14.1333C52 13.0667 50.9333 12.5333 49.6 12.8L44.5333 13.8667C43.2 14.1333 41.8667 13.3333 41.6 12L40 7.20001C39.4667 6.13334 38.4 5.33334 37.3333 5.33334H26.6667C25.6 5.33334 24.5333 6.13334 24.2667 7.20001L22.4 12C22.1333 13.3333 20.8 14.1333 19.4667 13.8667L14.4 12.8C13.3333 12.5333 12.2667 13.0667 11.4667 14.1333L6.13334 23.4667C5.6 24.2667 5.86667 25.6 6.66667 26.4L10.1333 30.1333C10.9333 31.2 10.9333 32.5333 10.1333 33.6L6.66667 37.3333C5.86667 38.1333 5.86667 39.4667 6.4 40.5333L11.7333 49.8667C12.2667 50.9333 13.3333 51.4667 14.6667 51.2L19.7333 50.1333C21.0667 49.8667 22.4 50.6667 22.6667 52L24.2667 56.8C24.5333 57.8667 25.6 58.6667 26.6667 58.6667H37.3333C38.4 58.6667 39.4667 57.8667 39.7333 56.8L41.3333 52C41.8667 50.6667 43.2 49.8667 44.2667 50.1333L49.3333 51.2C50.4 51.4667 51.7333 50.9333 52.2667 49.8667L57.6 40.5333C58.1333 39.4667 58.1333 38.4 57.3333 37.3333L54.1333 33.8667ZM32 40C27.4667 40 24 36.5333 24 32C24 27.4667 27.4667 24 32 24C36.5333 24 40 27.4667 40 32C40 36.5333 36.5333 40 32 40Z" fill="#2EB1C4"/>
</svg>
