<svg width="64" height="64" viewBox="0 0 64 64" fill="none" xmlns="http://www.w3.org/2000/svg">
<path d="M60.2933 18.8L45.3333 3.70667C45.0842 3.45952 44.7886 3.26398 44.4637 3.13128C44.1388 2.99857 43.7909 2.9313 43.44 2.93333C42.7404 2.93628 42.07 3.21402 41.5733 3.70667L3.70666 41.44C3.20999 41.9396 2.93121 42.6155 2.93121 43.32C2.93121 44.0245 3.20999 44.7004 3.70666 45.2L18.8 60.2933C19.0492 60.5405 19.3447 60.736 19.6696 60.8687C19.9945 61.0014 20.3424 61.0687 20.6933 61.0667C21.3929 61.0637 22.0633 60.786 22.56 60.2933L30.1067 52.7467L52.7467 30.1067L60.2933 22.56C60.79 22.0604 61.0688 21.3845 61.0688 20.68C61.0688 19.9755 60.79 19.2996 60.2933 18.8ZM50.8533 24.4533L48.96 22.56C48.4604 22.0633 47.7845 21.7846 47.08 21.7846C46.3755 21.7846 45.6996 22.0633 45.2 22.56C44.9501 22.8079 44.7517 23.1028 44.6163 23.4278C44.4809 23.7528 44.4112 24.1013 44.4112 24.4533C44.4112 24.8054 44.4809 25.1539 44.6163 25.4789C44.7517 25.8038 44.9501 26.0988 45.2 26.3467L47.0933 28.24L43.3067 32L37.6533 26.3467C37.1432 25.9098 36.487 25.6815 35.8158 25.7074C35.1447 25.7334 34.5081 26.0116 34.0332 26.4865C33.5582 26.9614 33.28 27.5981 33.2541 28.2692C33.2282 28.9403 33.4565 29.5965 33.8933 30.1067L39.5467 35.76L35.76 39.5467L33.8933 37.6533C33.3912 37.1512 32.7101 36.8691 32 36.8691C31.2899 36.8691 30.6088 37.1512 30.1067 37.6533C29.6045 38.1555 29.3224 38.8365 29.3224 39.5467C29.3224 40.2568 29.6045 40.9379 30.1067 41.44L32 43.3067L28.24 47.0933L22.56 41.44C22.0604 40.9433 21.3845 40.6646 20.68 40.6646C19.9755 40.6646 19.2996 40.9433 18.8 41.44C18.3033 41.9396 18.0245 42.6155 18.0245 43.32C18.0245 44.0245 18.3033 44.7004 18.8 45.2L24.4533 50.8533L20.6933 54.64L9.35999 43.3067L43.3067 9.36L54.64 20.6933L50.8533 24.4533Z" fill="#2EB1C4"/>
</svg>
