<svg width="64" height="64" viewBox="0 0 64 64" fill="none" xmlns="http://www.w3.org/2000/svg">
<path d="M58.6667 15.4667C56.6622 16.3363 54.5425 16.9111 52.3733 17.1733C54.6618 15.8062 56.3767 13.6554 57.2 11.12C55.0495 12.4002 52.6954 13.3021 50.24 13.7867C48.5988 12.0069 46.4132 10.8221 44.0262 10.4183C41.6391 10.0144 39.1854 10.4143 37.0501 11.5552C34.9148 12.6961 33.2185 14.5134 32.2273 16.7222C31.2361 18.9311 31.0061 21.4064 31.5733 23.76C27.2251 23.5401 22.9718 22.4079 19.0897 20.437C15.2077 18.4661 11.7836 15.7005 9.04 12.32C8.0777 14.0005 7.57205 15.9035 7.57334 17.84C7.56992 19.6384 8.01125 21.4097 8.85802 22.9962C9.70478 24.5827 10.9307 25.9352 12.4267 26.9333C10.6879 26.886 8.98636 26.4195 7.46667 25.5733V25.7067C7.4797 28.2264 8.36265 30.6643 9.96617 32.6079C11.5697 34.5516 13.7954 35.8817 16.2667 36.3733C15.3153 36.6629 14.3277 36.8155 13.3333 36.8267C12.645 36.8186 11.9585 36.7562 11.28 36.64C11.9838 38.8075 13.3457 40.7017 15.1762 42.0591C17.0067 43.4165 19.2149 44.1695 21.4933 44.2133C17.6459 47.2407 12.8957 48.893 8 48.9067C7.10863 48.9096 6.21796 48.8562 5.33334 48.7467C10.3318 51.974 16.1568 53.6873 22.1067 53.68C26.2125 53.7226 30.2857 52.9467 34.0883 51.3976C37.8909 49.8484 41.3467 47.557 44.2539 44.6573C47.161 41.7576 49.4612 38.3077 51.0202 34.5091C52.5791 30.7105 53.3654 26.6393 53.3333 22.5333C53.3333 22.08 53.3333 21.6 53.3333 21.12C55.4259 19.5595 57.2306 17.6465 58.6667 15.4667Z" fill="white"/>
</svg>
